# xmcd
# 
# Track frame offsets:
#     150
#     8714
#     27648
#     44918
#     62404
#     80005
#     94827
#     112500
#     129503
#     146555
#     167098
#     186215
#     193844
#     211666
#     230031
#     237309
#     255299
#     272490
#     294941
# 
# Disc length: 4264
# 
# Revision: 1
# Processed by: cddbd v1.5.2PL0 Copyright (c) Steve Scherf et al.
# Submitted via: fre:ac v1.0.17
# 
DISCID=0810a613
DTITLE=Trey Songz - Chapter V
DYEAR=2012
DGENRE=R&B
TTITLE0=Chapter V (Intro)
TTITLE1=Dive In
TTITLE2=Panty Wetter
TTITLE3=Heart Attack
TTITLE4=Playin' Hard
TTITLE5=2 Reasons (feat. T.I.)
TTITLE6=Hail Mary (feat. Young Jeezy and Lil Wayne)
TTITLE7=Don't Be Scared (feat. Rick Ross)
TTITLE8=Pretty Girl's Lie
TTITLE9=Bas Decisions
TTITLE10=Forever Yours
TTITLE11=Inside Interlewd
TTITLE12=Fumble
TTITLE13=Without a Woman
TTITLE14=Interlude4U
TTITLE15=Simply Amazing
TTITLE16=Never Again
TTITLE17=Check Me Out (feat. Diddy and Meek Mill)
TTITLE18=Chapter V (Outro)
EXTD=
EXTT0=
EXTT1=
EXTT2=
EXTT3=
EXTT4=
EXTT5=
EXTT6=
EXTT7=
EXTT8=
EXTT9=
EXTT10=
EXTT11=
EXTT12=
EXTT13=
EXTT14=
EXTT15=
EXTT16=
EXTT17=
EXTT18=
PLAYORDER=
